<?xml version="1.0" encoding="UTF-8"?>
<!DOCTYPE svg PUBLIC "-//W3C//DTD SVG 1.1//EN" "http://www.w3.org/Graphics/SVG/1.1/DTD/svg11.dtd">
<svg version="1.1" xmlns="http://www.w3.org/2000/svg" xmlns:xlink="http://www.w3.org/1999/xlink" width="100" height="100"  xml:space="preserve" id="logo">
    <!-- Generated by PaintCode (www.paintcodeapp.com) -->
    <g id="logo-group" transform="" >
        <path id="logo-main" stroke="rgb(0, 0, 0)" stroke-width="4" stroke-linecap="round" stroke-linejoin="round" stroke-miterlimit="10" fill="none" d="M 82.5,14.5 C 82.5,14.5 82.5,11.5 85.5,11.5 87,11.5 88.28,12.8 88.5,14.5 89.18,19.88 85.5,34.5 85.5,41 85.5,47.5 91.5,50 91.5,50 91.5,50 85.5,52.5 85.5,59 85.5,65.5 89.19,80.93 88.5,85.5 88.28,86.95 87,88.5 85.5,88.5 82.5,88.5 82.5,85.5 82.5,85.5" />
    </g>
    <g id="logo-group2" transform="translate(50, 50) rotate(180)" >
        <path id="logo-main2" stroke="rgb(0, 0, 0)" stroke-width="4" stroke-linecap="round" stroke-linejoin="round" stroke-miterlimit="10" fill="none" d="M 32.5,-35.5 C 32.5,-35.5 32.5,-38.5 35.5,-38.5 37,-38.5 38.28,-37.2 38.5,-35.5 39.18,-30.12 35.5,-15.5 35.5,-9 35.5,-2.5 41.5,-0 41.5,-0 41.5,-0 35.5,2.5 35.5,9 35.5,15.5 39.19,30.93 38.5,35.5 38.28,36.95 37,38.5 35.5,38.5 32.5,38.5 32.5,35.5 32.5,35.5" />
    </g>
    <path id="logo-dot4" stroke="rgb(0, 0, 0)" stroke-width="7" stroke-linecap="round" stroke-linejoin="round" stroke-miterlimit="10" fill="none" d="M 72,73 L 72,73" />
    <g id="logo-group3" clip-path="url(#logo-rectangle)">
        <clipPath id="logo-rectangle">
            <rect x="0" y="-18" width="18" height="18"  transform="translate(49.5, 82)" />
        </clipPath>
        <path id="logo-main3" stroke="rgb(255, 0, 0)" stroke-width="3" stroke-linecap="round" stroke-linejoin="round" stroke-miterlimit="10" fill="none" d="M 132,78.5 C 132,78.5 133.5,75.5 135,75.5 136.5,75.5 138,77.5 138,78.5 138,79.5 136,105 136,109 136,113 141,114 141,114 141,114 136,115 136,119 136,123 138,148.5 138,149.5 138,150.5 136.5,152.5 135,152.5 133.5,152.5 132,149.5 132,149.5" />
        <path id="logo-line6" stroke="rgb(0, 0, 0)" stroke-width="4" stroke-linecap="round" stroke-linejoin="round" stroke-miterlimit="10" fill="none" d="M 59.5,67 L 65.5,73 59.5,79" />
    </g>
    <path id="logo-line5" stroke="rgb(0, 0, 0)" stroke-width="4" stroke-linecap="round" stroke-linejoin="round" stroke-miterlimit="10" fill="none" d="M 28,73 L 63,73" />
    <path id="logo-line4" stroke="rgb(0, 0, 0)" stroke-width="4" stroke-linecap="round" stroke-linejoin="round" stroke-miterlimit="10" fill="none" d="M 28,57 L 28,73" />
    <path id="logo-dot3" stroke="rgb(0, 0, 0)" stroke-width="7" stroke-linecap="round" stroke-linejoin="round" stroke-miterlimit="10" fill="none" d="M 28,50 L 28,50" />
    <g id="logo-group4" clip-path="url(#logo-rectangle2)" transform="translate(41.5, 50) rotate(-180)" >
        <clipPath id="logo-rectangle2">
            <rect x="0" y="-18" width="18" height="18"  transform="translate(-9, 9)" />
        </clipPath>
        <path id="logo-main4" stroke="rgb(255, 0, 0)" stroke-width="3" stroke-linecap="round" stroke-linejoin="round" stroke-miterlimit="10" fill="none" d="M 73.5,5.5 C 73.5,5.5 75,2.5 76.5,2.5 78,2.5 79.5,4.5 79.5,5.5 79.5,6.5 77.5,32 77.5,36 77.5,40 82.5,41 82.5,41 82.5,41 77.5,42 77.5,46 77.5,50 79.5,75.5 79.5,76.5 79.5,77.5 78,79.5 76.5,79.5 75,79.5 73.5,76.5 73.5,76.5" />
        <path id="logo-line7" stroke="rgb(0, 0, 0)" stroke-width="4" stroke-linecap="round" stroke-linejoin="round" stroke-miterlimit="10" fill="none" d="M 1,-6 L 7,-0 1,6" />
    </g>
    <path id="logo-line3" stroke="rgb(0, 0, 0)" stroke-width="4" stroke-linecap="round" stroke-linejoin="round" stroke-miterlimit="10" fill="none" d="M 37,50 L 72,50" />
    <path id="logo-line2" stroke="rgb(0, 0, 0)" stroke-width="4" stroke-linecap="round" stroke-linejoin="round" stroke-miterlimit="10" fill="none" d="M 72,50 L 72,34" />
    <path id="logo-dot2" stroke="rgb(0, 0, 0)" stroke-width="7" stroke-linecap="round" stroke-linejoin="round" stroke-miterlimit="10" fill="none" d="M 72,27 L 72,27" />
    <g id="logo-group5" clip-path="url(#logo-rectangle3)">
        <clipPath id="logo-rectangle3">
            <rect x="0" y="-18" width="18" height="18"  transform="translate(49.5, 36)" />
        </clipPath>
        <path id="logo-main5" stroke="rgb(255, 0, 0)" stroke-width="3" stroke-linecap="round" stroke-linejoin="round" stroke-miterlimit="10" fill="none" d="M 132,32.5 C 132,32.5 133.5,29.5 135,29.5 136.5,29.5 138,31.5 138,32.5 138,33.5 136,59 136,63 136,67 141,68 141,68 141,68 136,69 136,73 136,77 138,102.5 138,103.5 138,104.5 136.5,106.5 135,106.5 133.5,106.5 132,103.5 132,103.5" />
        <path id="logo-line8" stroke="rgb(0, 0, 0)" stroke-width="4" stroke-linecap="round" stroke-linejoin="round" stroke-miterlimit="10" fill="none" d="M 59.5,21 L 65.5,27 59.5,33" />
    </g>
    <path id="logo-line" stroke="rgb(0, 0, 0)" stroke-width="4" stroke-linecap="round" stroke-linejoin="round" stroke-miterlimit="10" fill="none" d="M 35,27 L 63,27" />
    <path id="logo-dot" stroke="rgb(0, 0, 0)" stroke-width="7" stroke-linecap="round" stroke-linejoin="round" stroke-miterlimit="10" fill="none" d="M 28,27 L 28,27" />
</svg>
